<svg width="529" height="192" viewBox="0 0 529 192" fill="none" xmlns="http://www.w3.org/2000/svg">
<path d="M98.2831 115.695C98.2831 136.045 88.3218 154.585 52.626 154.585H0V18.9901H52.6393C82.9489 18.9901 94.3066 34.7374 94.3066 52.0808C94.3066 66.046 87.1382 79.2131 67.189 80.6096V83.7883C90.503 85.1848 98.2831 98.1525 98.2831 115.695ZM25.9074 70.834H51.6286C63.5981 70.834 68.3726 67.8415 68.3726 56.2704C68.3726 45.9096 63.5848 42.9703 51.6286 42.9703H25.9074V70.834ZM72.3625 112.064C72.3625 97.7136 66.5772 94.7743 52.626 94.7743H25.9074V128.676H52.626C66.5772 128.663 72.3625 125.671 72.3625 112.104V112.064Z" fill="white"/>
<g clip-path="url(#clip0_3_25)">
<path d="M169.302 30.2819H149.553L167.706 0.369873H191.433L169.302 30.2819Z" fill="white"/>
</g>
<path d="M368.861 154.585H342.94V75.8215H310.037V154.585H284.117V75.8215H251.214V154.585H225.293V51.8813H368.927L368.861 154.585Z" fill="white"/>
<path d="M390.349 105.681C401.895 76.5792 426.101 62.6319 456.128 74.5469C486.155 86.4619 494.187 113.244 482.655 142.309C471.123 171.373 446.809 185.592 416.795 173.682C386.78 161.772 378.802 134.782 390.349 105.681ZM458.562 132.748C466.65 112.362 463.605 103.27 447.299 96.7994C430.994 90.3293 422.511 94.9046 414.442 115.241C406.373 135.577 409.306 144.954 425.624 151.429C441.941 157.904 450.444 153.136 458.537 132.738L458.562 132.748Z" fill="white"/>
<path d="M528.973 15V154.585H503.053V15H528.973Z" fill="white"/>
<path d="M167.806 30H148L166.206 0H190L167.806 30Z" fill="white"/>
<path d="M203.373 112.703H139.988C141.783 125.272 147.967 132.653 167.917 132.653C177.584 132.796 187.231 131.724 196.63 129.461V152.989C181.083 156.58 173.502 156.58 165.922 156.58C119.866 156.58 113.282 124.075 113.282 103.379C113.282 72.8689 125.651 49.9396 158.753 49.9396C191.058 49.9396 203.413 71.2197 203.413 101.185L203.373 112.703ZM139.363 93.7635H177.452C176.654 79.8116 171.069 73.8133 158.314 73.8133C145.946 73.8266 140.161 80.3968 139.363 93.7635Z" fill="white"/>
<defs>
<clipPath id="clip0_3_25">
<rect width="90.1306" height="156.37" fill="white" transform="translate(114.362 0.369843)"/>
</clipPath>
</defs>
</svg>
